# xmcd
#
# Track frame offsets:
#       150
#       11193
#       23241
#       35008
#       47602
#       60294
#       72400
#       86013
#       98245
#       112577
#       123745
#       135097
#
# Disc length: 1973 seconds
#
# Revision: 2
# Processed by: cddbd v1.5.2PL0 Copyright (c) Steve Scherf et al.
# Submitted via: FreeDbEdit v0.1
#
DISCID=9607b30c
DTITLE=The Platters - Greatest Hits
DYEAR=1900
DGENRE=Blues
TTITLE0=The Great Pretender
TTITLE1=Only You
TTITLE2=My Prayer
TTITLE3=Twilight Time
TTITLE4=Smoke Gets in Your Eyes
TTITLE5=I'm Sorry
TTITLE6=With This Ring
TTITLE7=Harbour Lights
TTITLE8=He's Mine
TTITLE9=The Magic Touche
TTITLE10=One in a Illion
TTITLE11=Read Sails in the Sunset
EXTD=
EXTT0=
EXTT1=
EXTT2=
EXTT3=
EXTT4=
EXTT5=
EXTT6=
EXTT7=
EXTT8=
EXTT9=
EXTT10=
EXTT11=
PLAYORDER=
